<svg width="48" height="48" viewBox="0 0 48 48" fill="none" xmlns="http://www.w3.org/2000/svg">
<path d="M11.5708 24.9066C11.1942 24.8874 10.8468 24.9205 10.5583 24.9798C8.14602 25.4714 6.78265 27.5409 7.05048 30.2327C7.2924 32.6666 9.73402 34.7203 11.9942 34.7813C12.2275 34.7866 12.4608 34.7709 12.6871 34.7325C15.1322 34.3124 15.7733 31.6327 15.3689 29.0019C14.9145 26.0311 12.9221 24.9833 11.5708 24.9083V24.9066ZM13.9675 31.9465C13.8777 32.1575 13.5217 32.4452 13.0137 32.426C12.4901 32.3859 11.9078 32.0023 11.83 31.0469C11.7903 30.5745 11.9683 30.0009 12.0754 29.701C12.2862 29.1204 12.0962 28.512 11.6037 28.186C11.3151 27.9942 10.9695 27.9297 10.6308 28.0029C10.2991 28.0744 10.0157 28.2714 9.83424 28.5573C9.68391 28.7944 9.59233 29.0908 9.54221 29.2495C9.52839 29.2913 9.51802 29.3262 9.51111 29.3471C9.40052 29.647 9.22427 29.7359 9.10331 29.7184C9.04629 29.7115 8.96853 29.6731 8.91842 29.5354C8.78191 29.1588 8.8925 28.0953 9.59578 27.3125C10.0416 26.8174 10.7397 26.5628 11.4188 26.65C12.1255 26.7407 12.713 27.1713 13.0742 27.8634C13.5528 28.784 13.126 29.7481 12.872 30.3251C12.8444 30.3879 12.8184 30.4454 12.7977 30.496C12.6387 30.8796 12.6301 31.2125 12.7735 31.4375C12.8841 31.6101 13.0828 31.7112 13.3161 31.7147C13.425 31.7164 13.5252 31.6937 13.6116 31.6728C13.7377 31.6432 13.8673 31.6135 13.9468 31.7129C13.9762 31.746 14.0211 31.821 13.9675 31.9465Z" fill="white"/>
<path d="M45.5704 29.5633C45.287 29.2111 44.9431 28.9269 44.5733 28.7264C44.5422 28.6236 44.5094 28.5137 44.4748 28.4021C44.4351 28.2731 44.3936 28.1511 44.3556 28.0378C44.9327 26.8052 44.8878 25.7347 44.7876 25.1419C44.6338 24.1412 44.2104 23.3044 43.4571 22.5041C42.5378 21.5296 41.0068 20.9054 39.7868 20.5358C39.7713 19.9518 39.754 19.2875 39.735 18.8761C39.7108 18.3269 39.6607 17.1884 39.3082 16.0395C39.0455 15.0946 38.6602 14.2281 38.1816 13.4941C40.0288 11.2573 41.0293 8.94726 41.0275 6.88479C41.0223 3.54438 38.4442 1.38602 34.4612 1.38602C32.5691 1.38602 30.4126 1.86895 28.2198 2.78599C28.2164 2.78599 28.0954 2.8383 27.9278 2.90978C27.2608 2.25076 26.383 1.38079 26.3242 1.33023C25.322 0.44806 24.0779 0 22.6247 0C20.8967 0 18.9095 0.646811 16.7219 1.92126C14.835 3.02136 12.8063 4.59218 10.8555 6.46811C6.88114 10.2914 3.67576 14.8697 2.28129 18.7139C1.68341 20.3632 1.42767 21.8608 1.51753 23.1649C1.62812 24.7479 2.26401 26.0747 3.35609 27.0057L4.03518 27.5862C3.82091 28.5259 3.76389 29.5214 3.86584 30.557C4.0611 32.5219 5.04777 34.3891 6.64268 35.8152C7.92484 36.9624 9.49729 37.7068 11.0801 37.9369C12.5005 40.7979 14.6691 43.2091 17.3993 44.949C20.3437 46.8267 23.8688 47.878 27.5926 47.9895C27.8293 47.9965 28.0695 48 28.3062 48C32.151 48 35.7503 47.0463 38.7155 45.2419C41.7688 43.3852 44.1068 40.6515 45.477 37.3372C45.4822 37.325 45.4874 37.3128 45.4909 37.3006C45.7276 36.6869 46.5 34.5251 46.5 32.494C46.5 31.026 45.9937 30.0898 45.5686 29.565L45.5704 29.5633ZM44.0342 36.727C41.4025 43.0905 35.1213 46.6332 27.6392 46.4082C20.6634 46.199 14.7158 42.4855 12.1117 36.4324C10.5375 36.4324 8.91496 35.735 7.68119 34.6332C6.38176 33.472 5.57998 31.9675 5.42274 30.3984C5.30178 29.1762 5.45038 28.0413 5.82881 27.0492L4.36695 25.7992C-2.32374 20.1 18.6037 -3.3683 25.2961 2.52099C25.3307 2.55063 27.5736 4.77176 27.5787 4.77699C27.5874 4.77176 28.816 4.24698 28.8229 4.2435C34.6928 1.7905 39.4568 2.97428 39.462 6.88827C39.4654 8.92285 38.1798 11.2957 36.1201 13.4488C36.8666 14.1479 37.4645 15.2393 37.8066 16.4876C38.0952 17.4098 38.1453 18.3461 38.1712 18.9458C38.2075 19.7757 38.2472 21.7074 38.2507 21.7423C38.3025 21.758 38.8969 21.9236 39.0766 21.9741C40.6526 22.4205 41.774 23.015 42.3218 23.5955C42.8695 24.1761 43.1426 24.7375 43.2411 25.3965C43.3326 25.9282 43.3205 26.8679 42.6259 27.9175C42.6259 27.9175 42.8056 28.3115 42.9784 28.8729C43.1512 29.4325 43.2773 29.898 43.2963 29.9677C43.934 29.9677 44.9345 30.707 44.9345 32.4922C44.9345 34.2775 44.2035 36.2807 44.0325 36.727H44.0342Z" fill="white"/>
<path d="M42.9836 31.4218C42.6466 31.2125 42.2423 31.2858 42.2423 31.2858C42.2423 31.2858 42.0591 30.0148 41.5373 28.8589C39.9925 30.0898 38.0036 30.9545 36.4882 31.3921C34.7412 31.8977 32.3756 32.2865 29.737 32.1278C28.2734 32.0093 27.304 31.5769 26.9394 32.7712C30.283 34.0073 33.8236 33.4773 33.8236 33.4773C33.8927 33.4703 33.9532 33.5208 33.9601 33.5888C33.9653 33.6446 33.9325 33.7022 33.8824 33.7231C33.8824 33.7231 31.1626 34.9975 26.8444 33.6499C26.9636 34.6715 27.952 35.13 28.4237 35.3148C29.0181 35.5485 29.6679 35.6565 29.6679 35.6565C35.0194 36.5858 40.0218 33.4982 41.1485 32.7206C41.2332 32.6631 41.2884 32.7206 41.2211 32.8217C41.1554 32.9211 41.1519 32.9263 41.1105 32.9804C39.7315 34.7744 36.0251 36.8525 31.204 36.8508C29.1011 36.8508 26.9999 36.1029 26.2275 34.9539C25.03 33.1722 26.1687 30.571 28.1628 30.8412C28.1645 30.8412 28.8453 30.9197 29.0372 30.9406C31.5306 31.2213 35.1403 30.8674 38.1159 29.4744C40.8374 28.1999 41.8656 26.7965 41.7118 25.6615C41.6703 25.3546 41.5338 25.0356 41.2435 24.7322C40.7545 24.2493 39.9786 23.8727 38.6706 23.5031C38.2386 23.3811 37.9448 23.3026 37.6286 23.198C37.067 23.0115 36.7888 22.8615 36.7266 21.7946C36.699 21.3291 36.6178 19.7042 36.5901 19.033C36.5383 17.8562 36.3983 16.2487 35.4099 15.5862C35.1524 15.4136 34.8656 15.3299 34.5649 15.3143C34.2694 15.3003 34.1226 15.3544 34.0638 15.3631C33.4988 15.459 33.1653 15.7623 32.7506 16.1127C31.5168 17.1501 30.4765 17.3192 29.3188 17.2686C28.6276 17.239 27.8932 17.1309 27.0534 17.0803C26.8893 17.0699 26.7251 17.0612 26.5627 17.0524C24.6239 16.9531 22.5434 18.6425 22.1979 21.0414C21.7175 24.3818 24.1142 26.1078 24.8054 27.1207C24.8935 27.241 24.9954 27.4119 24.9954 27.574C24.9954 27.7675 24.871 27.921 24.7483 28.0517C22.7698 30.1037 22.1374 33.3639 22.8821 36.0819C22.9754 36.4219 23.0929 36.7462 23.2329 37.0565C24.9816 41.1815 30.4092 43.101 35.7088 41.3541C36.419 41.1204 37.0912 40.831 37.7237 40.4963C38.9125 39.9088 39.9527 39.0998 40.8081 38.1706C42.2146 36.6869 43.051 35.076 43.3758 33.0902C43.5348 32.0267 43.3015 31.6153 42.9836 31.4183V31.4218ZM35.8453 24.5945C35.8384 25.0339 35.5741 25.386 35.2561 25.3808C34.9382 25.3756 34.6876 25.0147 34.6945 24.5753C34.7014 24.136 34.9658 23.7838 35.2838 23.789C35.6017 23.7943 35.8523 24.1552 35.8453 24.5945ZM34.3887 19.3974C35.0073 19.2962 35.3062 19.943 35.5274 21.01C35.676 21.7283 35.6484 22.3873 35.4825 22.7691C35.1974 22.729 34.8863 22.7308 34.5615 22.7691C34.3144 22.4518 34.0932 21.9375 33.9688 21.3378C33.7476 20.2708 33.7701 19.4985 34.3887 19.3974ZM32.3151 25.1332C32.4551 24.8456 32.8853 24.7689 33.2776 24.9641C33.6681 25.1576 33.872 25.5482 33.732 25.8358C33.5921 26.1235 33.1618 26.2002 32.7696 26.0049C32.379 25.8114 32.1751 25.4209 32.3151 25.1332ZM29.8925 24.8089C29.8286 24.9083 29.6921 24.8909 29.4035 24.8578C28.8799 24.7967 28.3512 24.7619 27.5494 25.0513C27.5494 25.0513 27.2573 25.1698 27.1277 25.1698C27.0897 25.1698 27.0586 25.1576 27.0327 25.1332C27.0137 25.1175 26.9895 25.0844 26.9895 25.0269C26.9895 24.9083 27.0966 24.7375 27.2694 24.584C27.4733 24.4062 27.7913 24.2144 28.3667 24.122C29.1598 24.0279 29.7422 24.401 29.8769 24.6207C29.9357 24.7148 29.9115 24.7776 29.8925 24.8072V24.8089ZM25.4689 23.7088C25.3652 23.6949 25.3203 23.6496 25.3082 23.5903C25.2685 23.4055 25.5484 23.1039 25.8439 22.8842C26.7407 22.2339 27.9019 22.0944 28.8747 22.5163C29.3516 22.7203 29.7992 23.0847 30.0186 23.4456C30.124 23.6199 30.1448 23.7542 30.0757 23.8257C29.9685 23.939 29.6972 23.81 29.2549 23.613C28.8125 23.416 28.2388 23.198 27.5459 23.2416C26.5644 23.3026 25.7125 23.7367 25.4672 23.7088H25.4689Z" fill="white"/>
<path d="M32.2045 11.6025C32.2892 11.6217 32.3428 11.4735 32.2667 11.4316C31.147 10.797 29.4277 10.3664 28.2077 10.3577C28.1472 10.3577 28.1144 10.288 28.149 10.2391C28.3598 9.95322 28.6484 9.67078 28.9127 9.46506C28.9715 9.41973 28.9369 9.3221 28.8609 9.32733C27.1243 9.43542 25.144 10.274 24.007 11.0568C23.9517 11.0952 23.8792 11.0446 23.893 10.9784C23.9811 10.5477 24.261 9.97937 24.4062 9.71437C24.4408 9.6516 24.3734 9.58187 24.3094 9.61499C22.4795 10.5599 20.4388 12.2406 18.7799 14.1741C18.7212 14.242 18.8076 14.3397 18.8802 14.2856C20.3126 13.2343 22.2773 12.2563 24.8503 11.6234C27.7325 10.9138 30.5077 11.212 32.2028 11.6042L32.2045 11.6025Z" fill="white"/>
<path d="M26.0115 5.60686C26.0115 5.60686 24.1902 3.47639 23.6407 3.31948C20.2573 2.39721 12.9498 7.48278 8.28425 14.2002C6.39558 16.9182 3.69304 21.7318 4.98556 24.2075C5.14453 24.5143 6.04653 25.3023 6.53037 25.7103C7.33905 24.523 8.66268 23.6653 10.166 23.3706C12.0789 18.1926 15.2704 13.4226 19.4953 10.1398C22.6316 7.50022 26.0132 5.6086 26.0132 5.6086L26.0115 5.60686Z" fill="white"/>
</svg>
