<svg width="48" height="48" viewBox="0 0 48 48" fill="none" xmlns="http://www.w3.org/2000/svg">
<path d="M34.5926 22.7926C34.9184 22.7538 35.2305 22.7522 35.5153 22.7926C35.6808 22.4171 35.7098 21.7706 35.5597 21.0651C35.3379 20.0179 35.0378 19.3848 34.4186 19.4825C33.7995 19.5818 33.7756 20.3395 33.9974 21.3867C34.1219 21.976 34.3436 22.4794 34.5909 22.7909L34.5926 22.7926Z" fill="black"/>
<path d="M29.2712 23.6209C29.7147 23.8129 29.9876 23.9408 30.0933 23.8297C30.1615 23.7607 30.1411 23.6277 30.0353 23.4576C29.817 23.1057 29.3667 22.7471 28.8892 22.5467C27.9119 22.1309 26.747 22.2689 25.8482 22.9071C25.5514 23.1209 25.27 23.4189 25.3109 23.599C25.3245 23.658 25.3689 23.7017 25.4729 23.7152C25.7168 23.7421 26.573 23.3162 27.5571 23.2573C28.253 23.2152 28.8278 23.429 29.2712 23.6226V23.6209Z" fill="black"/>
<path d="M28.3775 24.1227C27.7993 24.2119 27.4821 24.4005 27.2774 24.5756C27.1034 24.7254 26.9943 24.8921 26.996 25.01C26.996 25.0655 27.0216 25.0975 27.0403 25.1143C27.0659 25.1379 27.0983 25.1497 27.1359 25.1497C27.2655 25.1497 27.5588 25.0335 27.5588 25.0335C28.3622 24.749 28.8926 24.7843 29.4179 24.8433C29.7079 24.8753 29.846 24.8938 29.9091 24.7944C29.9279 24.7658 29.95 24.7052 29.8921 24.6126C29.7573 24.3954 29.174 24.0301 28.3775 24.1227Z" fill="black"/>
<path d="M32.7949 25.968C33.1872 26.1582 33.6187 26.0841 33.7603 25.8013C33.9019 25.5184 33.6972 25.1362 33.3049 24.946C32.9126 24.7557 32.4811 24.8298 32.3396 25.1127C32.1997 25.3955 32.4027 25.7777 32.7949 25.968Z" fill="black"/>
<path d="M35.3175 23.7927C34.9985 23.7876 34.7342 24.1328 34.7273 24.5638C34.7205 24.9948 34.9729 25.3484 35.2902 25.3551C35.6091 25.3602 35.8735 25.015 35.8803 24.584C35.8871 24.153 35.6347 23.7994 35.3175 23.7927Z" fill="black"/>
<path d="M13.5783 31.5308C13.4896 31.551 13.3907 31.5746 13.2815 31.5729C13.0478 31.5678 12.8483 31.4702 12.7374 31.3001C12.5925 31.0796 12.601 30.7512 12.7613 30.3758C12.7835 30.3253 12.8091 30.2697 12.8364 30.2074C13.0922 29.6417 13.5203 28.6938 13.0393 27.7914C12.6777 27.1112 12.0893 26.6886 11.3798 26.5993C10.6993 26.5135 9.99829 26.7626 9.55143 27.2492C8.84703 28.017 8.73617 29.0608 8.87261 29.4313C8.92207 29.5659 9.00053 29.6047 9.05681 29.6114C9.1762 29.6266 9.35358 29.5407 9.46445 29.2461C9.47297 29.2242 9.48321 29.1922 9.49685 29.1501C9.54631 28.9935 9.63841 28.7039 9.79021 28.4716C9.9727 28.1904 10.2558 27.9968 10.5884 27.9277C10.9278 27.8553 11.2741 27.9193 11.564 28.1079C12.0569 28.4261 12.2479 29.0238 12.0364 29.5946C11.9273 29.8892 11.7499 30.4532 11.7891 30.9162C11.8676 31.854 12.4526 32.2295 12.9762 32.2699C13.4862 32.2884 13.8426 32.0056 13.933 31.8002C13.9859 31.6773 13.9416 31.6032 13.9126 31.5712C13.8341 31.4735 13.7028 31.5038 13.5766 31.5325L13.5783 31.5308Z" fill="black"/>
<path d="M43.3558 29.8572C43.3371 29.7899 43.2092 29.3336 43.0369 28.783C42.8629 28.2325 42.6838 27.8452 42.6838 27.8452C43.3814 26.8148 43.3933 25.8939 43.3013 25.3719C43.2023 24.7254 42.9294 24.1732 42.3802 23.6041C41.8311 23.035 40.7054 22.4508 39.126 22.013C38.9452 21.9625 38.35 21.8009 38.2971 21.7857C38.2937 21.7521 38.2528 19.8563 38.2169 19.0414C38.1914 18.4538 38.1402 17.5345 37.8503 16.6303C37.5057 15.4063 36.9071 14.3338 36.1583 13.6486C38.2238 11.5356 39.5132 9.20707 39.5098 7.21024C39.5047 3.3698 34.7256 2.20807 28.838 4.61403C28.8312 4.61739 27.5998 5.1326 27.5912 5.13765C27.5861 5.1326 25.3365 2.95393 25.3024 2.92363C18.5858 -2.85808 -2.40462 20.1728 4.3068 25.7659L5.77359 26.9916C5.39325 27.9648 5.24316 29.0794 5.36596 30.2781C5.52287 31.817 6.3279 33.2936 7.63096 34.4334C8.8692 35.516 10.4963 36.2013 12.0757 36.1996C14.6869 42.1396 20.6547 45.7847 27.6509 45.9901C35.1554 46.2107 41.4558 42.7339 44.0943 36.4892C44.2666 36.0514 45 34.0765 45 32.3339C45 30.5913 43.9971 29.8555 43.3575 29.8555L43.3558 29.8572ZM12.6522 34.5328C12.4236 34.5715 12.1917 34.5866 11.9563 34.5816C9.68958 34.521 7.24038 32.5073 6.99819 30.1182C6.72871 27.4782 8.09658 25.446 10.5168 24.9645C10.8067 24.9072 11.1564 24.8736 11.5333 24.8938C12.8892 24.9679 14.8865 25.9949 15.3435 28.911C15.7478 31.4937 15.1065 34.1219 12.6539 34.5361L12.6522 34.5328ZM10.1211 23.3835C8.61507 23.6731 7.28643 24.515 6.47458 25.68C5.98849 25.281 5.08454 24.5065 4.92592 24.2052C3.62969 21.7756 6.33984 17.0513 8.23473 14.3843C12.9131 7.78942 20.2436 2.80072 23.6377 3.70485C24.1886 3.85974 26.017 5.95086 26.017 5.95086C26.017 5.95086 22.6246 7.80794 19.4796 10.3991C15.2412 13.62 12.0399 18.3022 10.1211 23.3835ZM18.7649 14.3557C20.4278 12.4582 22.4762 10.8082 24.3114 9.88053C24.3745 9.84854 24.4428 9.91589 24.4069 9.97818C24.262 10.2392 23.9806 10.7964 23.8919 11.219C23.8782 11.2847 23.9516 11.3352 24.0078 11.2965C25.1489 10.5287 27.1359 9.70543 28.8772 9.59936C28.9523 9.59431 28.9881 9.69028 28.9284 9.73405C28.664 9.93441 28.3741 10.2122 28.1626 10.4934C28.1268 10.5405 28.1609 10.6096 28.2206 10.6096C29.4435 10.618 31.1678 11.0406 32.2918 11.6635C32.3685 11.7056 32.314 11.8504 32.2287 11.8319C30.5282 11.4463 27.7447 11.1551 24.8538 11.8521C22.2733 12.4734 20.3033 13.4331 18.8655 14.4652C18.7922 14.5173 18.7052 14.4231 18.7649 14.3557ZM43.4326 32.9249C43.1068 34.8745 42.2677 36.4555 40.8572 37.9119C39.9993 38.8244 38.9555 39.6174 37.7633 40.1949C37.1305 40.5232 36.4551 40.8078 35.7439 41.0368C30.4259 42.7507 24.9834 40.8667 23.2301 36.8192C23.0902 36.5144 22.9709 36.1962 22.8788 35.8629C22.1317 33.1959 22.7662 29.9953 24.7498 27.9816C24.8726 27.8537 24.9971 27.7021 24.9971 27.5119C24.9971 27.3536 24.8947 27.1852 24.806 27.0657C24.1119 26.0723 21.707 24.3786 22.1897 21.1005C22.5359 18.7467 24.6218 17.0883 26.5679 17.186C26.7316 17.1944 26.8971 17.2045 27.0608 17.2146C27.9034 17.2634 28.6385 17.3712 29.3326 17.3998C30.4941 17.4486 31.5379 17.2819 32.7745 16.265C33.1923 15.9215 33.5266 15.6235 34.0929 15.5292C34.1526 15.5191 34.301 15.4669 34.596 15.4804C34.8979 15.4956 35.1861 15.5781 35.4437 15.7481C36.4346 16.3997 36.5762 17.9773 36.6274 19.1306C36.6563 19.7889 36.7365 21.3833 36.7655 21.8413C36.8286 22.8868 37.1066 23.035 37.6712 23.2185C37.9884 23.3212 38.2818 23.3987 38.7167 23.5182C40.03 23.8819 40.8077 24.2506 41.2972 24.7254C41.5906 25.0217 41.7253 25.3366 41.7679 25.6363C41.9231 26.7509 40.8913 28.1281 38.1607 29.3791C35.1759 30.7462 31.555 31.093 29.0546 30.8169C28.8619 30.795 28.1814 30.7193 28.178 30.7193C26.1773 30.4532 25.0346 33.0057 26.237 34.755C27.0114 35.8814 29.1194 36.6155 31.2292 36.6155C36.0662 36.6155 39.7827 34.5765 41.1659 32.8171C41.2068 32.7649 41.2119 32.7582 41.2767 32.6622C41.345 32.5612 41.2887 32.5056 41.2034 32.5629C40.0743 33.3256 35.0548 36.3562 29.6874 35.4436C29.6874 35.4436 29.0359 35.3376 28.4406 35.1086C27.9682 34.9267 26.9772 34.4772 26.8561 33.4737C31.1883 34.7954 33.9155 33.5461 33.9155 33.5461C33.965 33.5259 33.9991 33.4704 33.9923 33.4148C33.9854 33.3475 33.924 33.297 33.8558 33.3037C33.8558 33.3037 30.3048 33.8223 26.95 32.61C27.3149 31.4382 28.2871 31.8608 29.7556 31.9786C32.4027 32.1335 34.7751 31.753 36.5284 31.2563C38.0481 30.8253 40.0436 29.9768 41.5923 28.7696C42.1142 29.9027 42.3001 31.1503 42.3001 31.1503C42.3001 31.1503 42.7043 31.0796 43.042 31.285C43.3609 31.4786 43.5963 31.8827 43.436 32.9265L43.4326 32.9249ZM27.0506 32.7447C27.0506 32.7447 27.0506 32.7447 27.0506 32.7464C27.0506 32.7464 27.0506 32.7447 27.0506 32.743V32.7447Z" fill="black"/>
</svg>
